<svg xmlns="http://www.w3.org/2000/svg" width="137.722" height="45.856" viewBox="0 0 137.722 45.856"><defs><style>.a{fill:#e51e27;}.b{stroke:#000;stroke-miterlimit:10;stroke-width:0.93px;}.c{fill:#7f8080;}</style></defs><g transform="translate(-1996.278 -2427.72)"><g transform="translate(1996.278 2427.72)"><path class="a" d="M148.418,90.685a2.4,2.4,0,0,0-3.386,0L133.92,101.8l3.386,3.38,11.112-11.112a2.4,2.4,0,0,0,0-3.38" transform="translate(-78.67 -76.76)"/><path d="M54.618,93.445A2.257,2.257,0,0,1,52.366,95.7a6.85,6.85,0,0,0-6.85,6.844v9.065a2.233,2.233,0,1,1-4.467,0V102.54A11.322,11.322,0,0,1,52.366,91.23a2.227,2.227,0,0,1,2.251,2.215" transform="translate(-41.05 -77.257)"/><path d="M86.051,102.51a2.227,2.227,0,0,1-2.263,2.215H68.245a6.886,6.886,0,0,0,6.5,4.647,8.9,8.9,0,0,0,5.049-1.459,2.15,2.15,0,0,1,2.966,1.033,2.384,2.384,0,0,1-1.087,3,11,11,0,0,1-6.928,1.933,11.31,11.31,0,1,1,0-22.621,11.1,11.1,0,0,1,11.31,11.3m-17.806-2.251H81.266a6.578,6.578,0,0,0-6.526-4.6,6.91,6.91,0,0,0-6.5,4.6" transform="translate(-49.994 -77.269)"/><path d="M126,115.085a2.359,2.359,0,0,1-1.687-.708l-17.806-17.77a2.4,2.4,0,0,1,3.38-3.38l17.806,17.794A2.4,2.4,0,0,1,126,115.109" transform="translate(-67.366 -77.837)"/><path d="M104.856,107.805a2.4,2.4,0,0,1-1.687-4.088l28.738-28.7a2.4,2.4,0,0,1,3.386,3.374l-28.744,28.738a2.4,2.4,0,0,1-1.693.708" transform="translate(-65.99 -70.557)"/><path class="a" d="M75.457,77.732a23.887,23.887,0,0,1,7.648-6.694,24.242,24.242,0,0,1,9.96-3,25.214,25.214,0,0,1,10.512,1.393,25.917,25.917,0,0,1,9.2,5.757h0a2.4,2.4,0,1,1-3.5,3.254,21.612,21.612,0,0,0-16.155-7.8,22.285,22.285,0,0,0-9.335,1.759,23.191,23.191,0,0,0-7.955,5.649.246.246,0,0,1-.348,0,.252.252,0,0,1,0-.324" transform="translate(-54.787 -67.955)"/><path class="b" d="M273.649,102.826v8.951a2.2,2.2,0,0,1-2.287,2.281,2.4,2.4,0,0,1-2.191-2.281,9.948,9.948,0,0,1-6.76,2.281,11.218,11.218,0,0,1-11.551-11.232A11.478,11.478,0,0,1,262.41,91.27,11.217,11.217,0,0,1,273.649,102.826Zm-4.478,0a6.9,6.9,0,0,0-6.76-7.078,7.2,7.2,0,0,0-7.078,7.078,6.9,6.9,0,0,0,7.078,6.76,6.6,6.6,0,0,0,6.76-6.76Z" transform="translate(-156.036 -77.873)"/><path class="c" d="M100.77,138.86h1.213a2.394,2.394,0,0,1,.477.045,1.044,1.044,0,0,1,.376.158.826.826,0,0,1,.267.3,1.055,1.055,0,0,1,.1.477,1.127,1.127,0,0,1-.09.477.815.815,0,0,1-.252.308,1.082,1.082,0,0,1-.376.161,2.117,2.117,0,0,1-.477.049h-.522V142.1h-.713Zm.714,1.371h.477a.981.981,0,0,0,.184,0,.552.552,0,0,0,.161-.06.346.346,0,0,0,.113-.12.376.376,0,0,0,.045-.191.338.338,0,0,0-.056-.2.447.447,0,0,0-.146-.116.815.815,0,0,0-.2-.053h-.586Z" transform="translate(-50.325 -96.342)"/><path class="c" d="M108.226,140.372a1.779,1.779,0,0,1,.131-.706,1.573,1.573,0,0,1,.376-.537,1.731,1.731,0,0,1,.533-.323,2.1,2.1,0,0,1,.7-.116,2.081,2.081,0,0,1,.7.116,1.652,1.652,0,0,1,.552.342,1.528,1.528,0,0,1,.376.537,1.848,1.848,0,0,1,.131.706,1.828,1.828,0,0,1-.131.7,1.5,1.5,0,0,1-.376.537,1.54,1.54,0,0,1-.552.342,1.99,1.99,0,0,1-.7.12,2.013,2.013,0,0,1-.7-.12,1.607,1.607,0,0,1-.552-.342,1.536,1.536,0,0,1-.376-.537A1.761,1.761,0,0,1,108.226,140.372Zm.751,0a1.127,1.127,0,0,0,.071.417.957.957,0,0,0,.2.33.909.909,0,0,0,.319.218,1.026,1.026,0,0,0,.413.075,1.04,1.04,0,0,0,.413-.075.893.893,0,0,0,.315-.218.965.965,0,0,0,.207-.33,1.228,1.228,0,0,0,.071-.417,1.243,1.243,0,0,0-.071-.417.984.984,0,0,0-.207-.334.886.886,0,0,0-.315-.214,1.041,1.041,0,0,0-.413-.079,1.025,1.025,0,0,0-.413.079.9.9,0,0,0-.319.214.973.973,0,0,0-.2.334,1.156,1.156,0,0,0-.083.417Z" transform="translate(-55.006 -96.236)"/><path class="c" d="M118.16,138.86h.777l.518,2.077h0l.68-2.077h.661l.672,2.129h0l.545-2.129h.725l-.946,3.237h-.638l-.71-2.253h0l-.714,2.253h-.612Z" transform="translate(-61.246 -96.343)"/><path class="c" d="M131.535,138.86h2.2v.657h-1.5v.6h1.408v.668H132.23v.661h1.57v.657H131.52Z" transform="translate(-69.622 -96.343)"/><path class="c" d="M139.375,138.86h1.254a2.141,2.141,0,0,1,.473.053,1.077,1.077,0,0,1,.375.158.808.808,0,0,1,.267.3,1.022,1.022,0,0,1,.1.469.954.954,0,0,1-.18.586.826.826,0,0,1-.522.3l.826,1.367H141.1l-.676-1.3h-.353v1.3h-.713Zm.714,1.337h.638a.645.645,0,0,0,.2-.041.338.338,0,0,0,.143-.109.33.33,0,0,0,.056-.207.312.312,0,0,0-.176-.308.634.634,0,0,0-.18-.053,1.688,1.688,0,0,0-.2,0h-.481Z" transform="translate(-74.543 -96.343)"/><path class="c" d="M147.61,138.86h2.2v.657h-1.5v.6h1.408v.668H148.32v.661h1.57v.657H147.61Z" transform="translate(-79.719 -96.343)"/><path class="c" d="M155.444,138.86h1.07a3.171,3.171,0,0,1,.751.086,1.649,1.649,0,0,1,.608.282,1.363,1.363,0,0,1,.413.5,1.712,1.712,0,0,1,.154.751,1.573,1.573,0,0,1-.161.683,1.5,1.5,0,0,1-.4.5,1.739,1.739,0,0,1-.582.312,2.314,2.314,0,0,1-.691.105H155.44Zm.714,2.58h.376a1.992,1.992,0,0,0,.458-.053,1.033,1.033,0,0,0,.376-.165.8.8,0,0,0,.244-.308,1.066,1.066,0,0,0,.09-.462.909.909,0,0,0-.09-.417.823.823,0,0,0-.24-.289,1.1,1.1,0,0,0-.353-.173,1.592,1.592,0,0,0-.428-.056h-.421Z" transform="translate(-84.636 -96.342)"/><path class="c" d="M168.78,138.86h1.209a2.633,2.633,0,0,1,.421.03,1.127,1.127,0,0,1,.376.116.706.706,0,0,1,.274.252.751.751,0,0,1,.105.424.7.7,0,0,1-.15.454.875.875,0,0,1-.409.259h0a.89.89,0,0,1,.293.09.845.845,0,0,1,.225.169.816.816,0,0,1,.143.24.826.826,0,0,1,.049.293.8.8,0,0,1-.109.428.878.878,0,0,1-.285.278,1.343,1.343,0,0,1-.376.15,2.072,2.072,0,0,1-.428.045h-1.329Zm.714,1.292h.518a.752.752,0,0,0,.161,0,.546.546,0,0,0,.143-.06.334.334,0,0,0,.105-.113.353.353,0,0,0,.038-.161.33.33,0,0,0-.041-.169.289.289,0,0,0-.113-.1.414.414,0,0,0-.158-.053.857.857,0,0,0-.169,0h-.484Zm0,1.341h.642a.637.637,0,0,0,.165-.019.431.431,0,0,0,.154-.064.349.349,0,0,0,.158-.3.285.285,0,0,0-.06-.184.338.338,0,0,0-.143-.109.726.726,0,0,0-.188-.049,1.127,1.127,0,0,0-.188,0h-.541Z" transform="translate(-93.005 -96.342)"/><path class="c" d="M176.97,140.715l-1.22-1.855h.89l.687,1.209.725-1.209h.845l-1.213,1.855V142.1h-.713Z" transform="translate(-97.382 -96.343)"/><path class="c" d="M191.535,141.73a2.6,2.6,0,0,1-.657.237,3.353,3.353,0,0,1-.7.075,2.005,2.005,0,0,1-.7-.12,1.555,1.555,0,0,1-.916-.879,1.829,1.829,0,0,1-.131-.7,1.848,1.848,0,0,1,.131-.706,1.581,1.581,0,0,1,.376-.537,1.652,1.652,0,0,1,.552-.342,2.1,2.1,0,0,1,.7-.116,2.55,2.55,0,0,1,.717.094,1.4,1.4,0,0,1,.575.319l-.5.552a.958.958,0,0,0-.327-.229,1.187,1.187,0,0,0-.462-.079,1.051,1.051,0,0,0-.413.079.886.886,0,0,0-.315.214.92.92,0,0,0-.2.334,1.156,1.156,0,0,0-.071.417,1.126,1.126,0,0,0,.071.417.935.935,0,0,0,.518.548,1.051,1.051,0,0,0,.413.075,1.3,1.3,0,0,0,.406-.053,1.4,1.4,0,0,0,.27-.105V140.7h-.582v-.661h1.266Z" transform="translate(-105.339 -96.205)"/><path class="c" d="M198.69,138.86h.714v2.58h1.322v.657H198.69Z" transform="translate(-111.773 -96.343)"/><path class="c" d="M204.94,140.341a1.848,1.848,0,0,1,.131-.706,1.573,1.573,0,0,1,.376-.537,1.7,1.7,0,0,1,.556-.342,2.152,2.152,0,0,1,1.4,0,1.705,1.705,0,0,1,.556.342,1.573,1.573,0,0,1,.376.537,1.848,1.848,0,0,1,.131.706,1.829,1.829,0,0,1-.131.7,1.535,1.535,0,0,1-.376.537,1.588,1.588,0,0,1-.556.342,2.092,2.092,0,0,1-1.4,0,1.589,1.589,0,0,1-.556-.342,1.535,1.535,0,0,1-.376-.537,1.829,1.829,0,0,1-.131-.7Zm.751,0a1.126,1.126,0,0,0,.071.417,1.017,1.017,0,0,0,.2.33.947.947,0,0,0,.319.218,1.172,1.172,0,0,0,.826,0,.946.946,0,0,0,.319-.218,1.018,1.018,0,0,0,.2-.33,1.229,1.229,0,0,0,.071-.417,1.243,1.243,0,0,0-.071-.417,1.037,1.037,0,0,0-.2-.334.935.935,0,0,0-.319-.214,1.127,1.127,0,0,0-.826,0,.936.936,0,0,0-.319.214,1.037,1.037,0,0,0-.2.334,1.157,1.157,0,0,0-.083.417Z" transform="translate(-115.703 -96.205)"/><path class="c" d="M215.77,138.86h1.213a2.633,2.633,0,0,1,.421.03,1.126,1.126,0,0,1,.376.116.706.706,0,0,1,.274.252.751.751,0,0,1,.105.424.7.7,0,0,1-.15.454.864.864,0,0,1-.406.259h0a.9.9,0,0,1,.289.09.844.844,0,0,1,.225.169.815.815,0,0,1,.143.24.827.827,0,0,1,.049.293.8.8,0,0,1-.109.428.9.9,0,0,1-.282.278,1.431,1.431,0,0,1-.376.15,2.139,2.139,0,0,1-.432.045h-1.329Zm.714,1.292H217a.752.752,0,0,0,.161,0,.632.632,0,0,0,.146-.06.376.376,0,0,0,.1-.113.312.312,0,0,0,.038-.161.3.3,0,0,0-.041-.169.289.289,0,0,0-.113-.1.417.417,0,0,0-.154-.053.909.909,0,0,0-.169,0h-.488Zm0,1.341h.642a.637.637,0,0,0,.165-.019.431.431,0,0,0,.154-.064.349.349,0,0,0,.113-.12.316.316,0,0,0,.045-.177.285.285,0,0,0-.06-.184.338.338,0,0,0-.143-.109.727.727,0,0,0-.188-.049,1.132,1.132,0,0,0-.188,0h-.541Z" transform="translate(-122.494 -96.342)"/><path class="c" d="M224.408,138.86H225l1.408,3.237H225.6l-.278-.687h-1.258l-.267.687H223Zm.274.943-.376,1.006h.789Z" transform="translate(-127.036 -96.343)"/><path class="c" d="M233.25,138.86h.714v2.58h1.322v.657H233.25Z" transform="translate(-133.46 -96.343)"/><path class="c" d="M244.311,138.86h.59l1.408,3.237h-.8l-.278-.687h-1.258l-.27.687h-.789Zm.274.943-.394,1.006h.792Z" transform="translate(-139.531 -96.343)"/><path class="c" d="M254.9,139.564a.635.635,0,0,0-.259-.2.8.8,0,0,0-.353-.071.867.867,0,0,0-.376.079.9.9,0,0,0-.3.214,1.088,1.088,0,0,0-.2.334,1.156,1.156,0,0,0-.068.417,1.127,1.127,0,0,0,.068.417,1.07,1.07,0,0,0,.2.33.9.9,0,0,0,.289.218.837.837,0,0,0,.376.075.774.774,0,0,0,.668-.345l.593.443a1.243,1.243,0,0,1-.522.424,1.641,1.641,0,0,1-.65.139,2.005,2.005,0,0,1-.7-.12,1.539,1.539,0,0,1-.552-.342,1.5,1.5,0,0,1-.376-.537,1.828,1.828,0,0,1-.131-.7,1.847,1.847,0,0,1,.131-.706,1.529,1.529,0,0,1,.376-.537,1.652,1.652,0,0,1,.552-.342,2.1,2.1,0,0,1,.7-.116,1.876,1.876,0,0,1,.285.023,1.541,1.541,0,0,1,.293.083,1.2,1.2,0,0,1,.514.376Z" transform="translate(-145.615 -96.205)"/><path class="c" d="M263.509,139.595a.661.661,0,0,0-.259-.2.83.83,0,0,0-.357-.071.894.894,0,0,0-.376.079.883.883,0,0,0-.3.214,1.026,1.026,0,0,0-.2.334,1.244,1.244,0,0,0-.068.417,1.227,1.227,0,0,0,.068.417,1.071,1.071,0,0,0,.2.33.906.906,0,0,0,.289.218.838.838,0,0,0,.376.075.822.822,0,0,0,.376-.09.785.785,0,0,0,.278-.255l.612.443a1.2,1.2,0,0,1-.522.424,1.614,1.614,0,0,1-.65.139,2,2,0,0,1-.7-.12,1.555,1.555,0,0,1-.916-.879,1.828,1.828,0,0,1-.131-.7,1.847,1.847,0,0,1,.131-.706,1.58,1.58,0,0,1,.376-.537,1.652,1.652,0,0,1,.533-.323,2.1,2.1,0,0,1,.7-.116,1.946,1.946,0,0,1,.289.023,1.716,1.716,0,0,1,.293.083,1.077,1.077,0,0,1,.274.146,1.016,1.016,0,0,1,.237.222Z" transform="translate(-151.228 -96.236)"/><path class="c" d="M270.31,138.86h2.2v.657h-1.5v.6h1.438v.668h-1.4v.661h1.57v.657h-2.283Z" transform="translate(-156.899 -96.343)"/><path class="c" d="M278.23,138.86h.714v2.58h1.322v.657H278.23Z" transform="translate(-161.844 -96.343)"/><path class="c" d="M285,138.86h2.2v.657h-1.5v.6h1.4v.668h-1.4v.661h1.57v.657H285Z" transform="translate(-166.072 -96.343)"/><path class="c" d="M292.86,138.86h1.25a2.092,2.092,0,0,1,.469.049,1.052,1.052,0,0,1,.376.158.778.778,0,0,1,.267.3.977.977,0,0,1,.1.469.954.954,0,0,1-.158.575.826.826,0,0,1-.522.3l.822,1.367H294.6l-.68-1.3h-.353v1.3h-.71Zm.71,1.337h.627a.6.6,0,0,0,.192-.041.3.3,0,0,0,.2-.315.334.334,0,0,0-.049-.2.375.375,0,0,0-.128-.113.635.635,0,0,0-.18-.053h-.665Z" transform="translate(-170.98 -96.342)"/><path class="c" d="M301.06,138.86h2.2v.657h-1.5v.6h1.4v.668h-1.374v.661h1.57v.657h-2.283Z" transform="translate(-176.101 -96.343)"/><path class="c" d="M309.145,140.433l-1.07-1.543h.9l.691,1.127.661-1.127h.864l-1.044,1.532,1.168,1.7h-.9l-.789-1.3-.77,1.3H308Z" transform="translate(-180.435 -96.361)"/><path d="M10.386-28.237l4.012-13.5h6.219L11.891-16.662l-.481,1.143A6.616,6.616,0,0,1,4.99-11.266a9.122,9.122,0,0,1-2.568-.381V-16.04l.883.02a4.769,4.769,0,0,0,2.457-.5,3.3,3.3,0,0,0,1.274-1.665l.682-1.785L.116-41.737H6.354Z" transform="translate(117.105 47.898)"/><g transform="translate(73.423 5.058)"><g transform="translate(0.001)"><path class="b" d="M308.53,102.55V74.431a2.141,2.141,0,1,1,4.281,0V102.55a2.141,2.141,0,1,1-4.281,0Z" transform="translate(-308.53 -72.29)"/></g><path class="b" d="M20.7,10.5v8.131A2,2,0,0,1,18.623,20.7a2.181,2.181,0,0,1-1.99-2.072,9.036,9.036,0,0,1-6.14,2.072A10.19,10.19,0,0,1,0,10.5,10.426,10.426,0,0,1,10.492,0,10.189,10.189,0,0,1,20.7,10.5Zm-4.068,0a6.271,6.271,0,0,0-6.14-6.429A6.544,6.544,0,0,0,4.063,10.5a6.271,6.271,0,0,0,6.429,6.14,6,6,0,0,0,6.14-6.14Z" transform="matrix(-1, 0.017, -0.017, -1, 21.06, 20.728)"/></g></g></g></svg>